<svg width="701" height="212" viewBox="0 0 701 212" fill="none" xmlns="http://www.w3.org/2000/svg">
<circle cx="45.6817" cy="135.754" r="11.2159" transform="rotate(-45 45.6817 135.754)" fill="#E4DDEE"/>
<circle cx="45.6817" cy="76.1135" r="11.2159" transform="rotate(-45 45.6817 76.1135)" fill="#E4DDEE"/>
<circle cx="75.5018" cy="105.934" r="11.2159" transform="rotate(-45 75.5018 105.934)" fill="#E4DDEE"/>
<rect x="48.8541" y="138.926" width="8.97275" height="42.1719" transform="rotate(-135 48.8541 138.926)" fill="#E4DDEE"/>
<rect x="42.5094" y="79.2859" width="8.97275" height="42.1719" transform="rotate(-45 42.5094 79.2859)" fill="#E4DDEE"/>
<path d="M98.3038 97.9899C102.684 93.6098 109.785 93.6098 114.166 97.9899C118.546 102.37 118.546 109.472 114.166 113.852C109.785 118.232 102.684 118.232 98.3038 113.852C93.9237 109.472 93.9237 102.37 98.3038 97.9899Z" fill="#E4DDEE"/>
<circle cx="136.055" cy="135.741" r="11.2159" transform="rotate(-135 136.055 135.741)" fill="#E4DDEE"/>
<rect x="139.227" y="132.568" width="8.97275" height="42.1719" transform="rotate(135 139.227 132.568)" fill="#E4DDEE"/>
<circle cx="76.4146" cy="135.741" r="11.2159" transform="rotate(135 76.4146 135.741)" fill="#E4DDEE"/>
<rect x="103.062" y="102.748" width="8.97275" height="42.1719" transform="rotate(45 103.062 102.748)" fill="#E4DDEE"/>
<circle cx="77.0491" cy="76.735" r="11.2159" transform="rotate(-135 77.0491 76.735)" fill="#E4DDEE"/>
<rect x="110.042" y="103.383" width="8.97275" height="42.1719" transform="rotate(135 110.042 103.383)" fill="#E4DDEE"/>
<circle cx="136.055" cy="76.1006" r="11.2159" transform="rotate(-45 136.055 76.1006)" fill="#E4DDEE"/>
<rect x="109.407" y="109.093" width="8.97275" height="42.1719" transform="rotate(-135 109.407 109.093)" fill="#E4DDEE"/>
<circle cx="136.068" cy="165.602" r="11.2159" transform="rotate(-135 136.068 165.602)" fill="#E4DDEE"/>
<circle cx="76.4278" cy="165.602" r="11.2159" transform="rotate(-135 76.4278 165.602)" fill="#E4DDEE"/>
<circle cx="106.248" cy="135.782" r="11.2159" transform="rotate(-135 106.248 135.782)" fill="#E4DDEE"/>
<rect x="139.24" y="162.43" width="8.97275" height="42.1719" transform="rotate(135 139.24 162.43)" fill="#E4DDEE"/>
<rect x="79.6002" y="168.775" width="8.97275" height="42.1719" transform="rotate(-135 79.6002 168.775)" fill="#E4DDEE"/>
<circle cx="76.4277" cy="45.9958" r="11.2159" transform="rotate(45 76.4277 45.9958)" fill="#E4DDEE"/>
<circle cx="136.068" cy="45.9958" r="11.2159" transform="rotate(45 136.068 45.9958)" fill="#E4DDEE"/>
<circle cx="106.248" cy="75.8158" r="11.2159" transform="rotate(45 106.248 75.8158)" fill="#E4DDEE"/>
<rect x="73.2554" y="49.168" width="8.97275" height="42.1719" transform="rotate(-45 73.2554 49.168)" fill="#E4DDEE"/>
<rect x="132.895" y="42.8232" width="8.97275" height="42.1719" transform="rotate(45 132.895 42.8232)" fill="#E4DDEE"/>
<circle cx="165.917" cy="76.1135" r="11.2159" transform="rotate(135 165.917 76.1135)" fill="#E4DDEE"/>
<circle cx="165.917" cy="135.754" r="11.2159" transform="rotate(135 165.917 135.754)" fill="#E4DDEE"/>
<circle cx="136.097" cy="105.934" r="11.2159" transform="rotate(135 136.097 105.934)" fill="#E4DDEE"/>
<rect x="162.744" y="72.9412" width="8.97275" height="42.1719" transform="rotate(45 162.744 72.9412)" fill="#E4DDEE"/>
<rect x="169.089" y="132.581" width="8.97275" height="42.1719" transform="rotate(135 169.089 132.581)" fill="#E4DDEE"/>
<path d="M245.54 145.1C239.307 145.1 233.55 144 228.27 141.8C223.063 139.527 218.7 136.41 215.18 132.45L222.99 124.64C226.217 128.16 229.663 130.69 233.33 132.23C236.997 133.697 241.14 134.43 245.76 134.43C250.087 134.43 253.387 133.623 255.66 132.01C258.007 130.323 259.18 128.013 259.18 125.08C259.18 122.953 258.703 121.193 257.75 119.8C256.87 118.407 255.183 117.013 252.69 115.62C250.197 114.227 246.42 112.613 241.36 110.78C232.853 107.7 226.693 104.29 222.88 100.55C219.14 96.7367 217.27 92.0067 217.27 86.36C217.27 79.9067 219.69 74.8833 224.53 71.29C229.37 67.6967 235.823 65.9 243.89 65.9C248.877 65.9 253.643 66.7433 258.19 68.43C262.81 70.0433 266.807 72.28 270.18 75.14L263.36 83.83C260.207 81.19 257.2 79.32 254.34 78.22C251.48 77.12 247.997 76.57 243.89 76.57C239.563 76.57 236.227 77.3767 233.88 78.99C231.607 80.6033 230.47 83.0233 230.47 86.25C230.47 88.3767 231.02 90.21 232.12 91.75C233.22 93.2167 235.017 94.61 237.51 95.93C240.003 97.25 243.633 98.8267 248.4 100.66C254.487 103.007 259.217 105.28 262.59 107.48C266.037 109.607 268.53 112.063 270.07 114.85C271.61 117.563 272.38 120.973 272.38 125.08C272.38 131.387 269.997 136.3 265.23 139.82C260.463 143.34 253.9 145.1 245.54 145.1ZM303.037 145.21C297.537 145.21 292.771 144.037 288.737 141.69C284.704 139.343 281.624 136.08 279.497 131.9C277.371 127.647 276.307 122.807 276.307 117.38C276.307 111.953 277.371 107.15 279.497 102.97C281.624 98.7167 284.704 95.4167 288.737 93.07C292.771 90.7233 297.537 89.55 303.037 89.55C308.537 89.55 313.267 90.7233 317.227 93.07C321.261 95.4167 324.341 98.7167 326.467 102.97C328.594 107.15 329.657 111.953 329.657 117.38C329.657 122.807 328.594 127.647 326.467 131.9C324.341 136.08 321.261 139.343 317.227 141.69C313.267 144.037 308.537 145.21 303.037 145.21ZM303.037 134.76C307.511 134.76 310.884 133.22 313.157 130.14C315.504 126.987 316.677 122.733 316.677 117.38C316.677 111.953 315.504 107.7 313.157 104.62C310.884 101.54 307.511 100 303.037 100C298.564 100 295.154 101.54 292.807 104.62C290.461 107.7 289.287 111.953 289.287 117.38C289.287 122.733 290.461 126.987 292.807 130.14C295.154 133.22 298.564 134.76 303.037 134.76ZM335.987 105.06C335.987 102.713 335.804 100.733 335.437 99.12C335.144 97.4333 334.521 95.71 333.567 93.95L344.897 89.55C345.557 90.65 346.144 92.0433 346.657 93.73C347.244 95.3433 347.574 96.8467 347.647 98.24C349.554 95.3067 351.607 93.1433 353.807 91.75C356.081 90.2833 358.684 89.55 361.617 89.55C363.671 89.55 365.467 89.8067 367.007 90.32C368.547 90.8333 370.234 91.75 372.067 93.07L367.227 101.98C365.101 100.66 362.901 100 360.627 100C356.667 100 353.697 101.32 351.717 103.96C349.737 106.6 348.747 110.34 348.747 115.18V144H335.987V105.06ZM395.966 145.21C390.466 145.21 385.699 144.037 381.666 141.69C377.633 139.343 374.553 136.08 372.426 131.9C370.299 127.647 369.236 122.807 369.236 117.38C369.236 111.953 370.299 107.15 372.426 102.97C374.553 98.7167 377.633 95.4167 381.666 93.07C385.699 90.7233 390.466 89.55 395.966 89.55C401.466 89.55 406.196 90.7233 410.156 93.07C414.189 95.4167 417.269 98.7167 419.396 102.97C421.523 107.15 422.586 111.953 422.586 117.38C422.586 122.807 421.523 127.647 419.396 131.9C417.269 136.08 414.189 139.343 410.156 141.69C406.196 144.037 401.466 145.21 395.966 145.21ZM395.966 134.76C400.439 134.76 403.813 133.22 406.086 130.14C408.433 126.987 409.606 122.733 409.606 117.38C409.606 111.953 408.433 107.7 406.086 104.62C403.813 101.54 400.439 100 395.966 100C391.493 100 388.083 101.54 385.736 104.62C383.389 107.7 382.216 111.953 382.216 117.38C382.216 122.733 383.389 126.987 385.736 130.14C388.083 133.22 391.493 134.76 395.966 134.76ZM471.816 145.21C469.689 142.863 468.516 139.93 468.296 136.41C463.896 142.203 458.103 145.1 450.916 145.1C446.149 145.1 441.896 144.037 438.156 141.91C434.489 139.71 431.629 136.593 429.576 132.56C427.523 128.453 426.496 123.65 426.496 118.15C426.496 112.357 427.523 107.297 429.576 102.97C431.629 98.6433 434.526 95.3433 438.266 93.07C442.079 90.7233 446.516 89.55 451.576 89.55C457.663 89.55 462.759 91.9333 466.866 96.7V63.26H479.626V129.37C479.626 132.083 479.809 134.32 480.176 136.08C480.616 137.84 481.313 139.49 482.266 141.03L471.816 145.21ZM452.786 134.87C457.333 134.87 460.816 133.367 463.236 130.36C465.729 127.353 466.976 123.503 466.976 118.81V115.95C466.976 111.477 465.766 107.663 463.346 104.51C460.999 101.357 457.626 99.78 453.226 99.78C448.606 99.78 445.123 101.43 442.776 104.73C440.503 107.957 439.366 112.43 439.366 118.15C439.366 123.43 440.466 127.537 442.666 130.47C444.939 133.403 448.313 134.87 452.786 134.87ZM488.647 105.06C488.647 102.713 488.464 100.733 488.097 99.12C487.804 97.4333 487.18 95.71 486.227 93.95L497.557 89.55C498.217 90.65 498.804 92.0433 499.317 93.73C499.904 95.3433 500.234 96.8467 500.307 98.24C502.214 95.3067 504.267 93.1433 506.467 91.75C508.74 90.2833 511.344 89.55 514.277 89.55C516.33 89.55 518.127 89.8067 519.667 90.32C521.207 90.8333 522.894 91.75 524.727 93.07L519.887 101.98C517.76 100.66 515.56 100 513.287 100C509.327 100 506.357 101.32 504.377 103.96C502.397 106.6 501.407 110.34 501.407 115.18V144H488.647V105.06ZM548.625 145.21C543.125 145.21 538.359 144.037 534.325 141.69C530.292 139.343 527.212 136.08 525.085 131.9C522.959 127.647 521.895 122.807 521.895 117.38C521.895 111.953 522.959 107.15 525.085 102.97C527.212 98.7167 530.292 95.4167 534.325 93.07C538.359 90.7233 543.125 89.55 548.625 89.55C554.125 89.55 558.855 90.7233 562.815 93.07C566.849 95.4167 569.929 98.7167 572.055 102.97C574.182 107.15 575.245 111.953 575.245 117.38C575.245 122.807 574.182 127.647 572.055 131.9C569.929 136.08 566.849 139.343 562.815 141.69C558.855 144.037 554.125 145.21 548.625 145.21ZM548.625 134.76C553.099 134.76 556.472 133.22 558.745 130.14C561.092 126.987 562.265 122.733 562.265 117.38C562.265 111.953 561.092 107.7 558.745 104.62C556.472 101.54 553.099 100 548.625 100C544.152 100 540.742 101.54 538.395 104.62C536.049 107.7 534.875 111.953 534.875 117.38C534.875 122.733 536.049 126.987 538.395 130.14C540.742 133.22 544.152 134.76 548.625 134.76ZM581.905 105.17C581.905 102.383 581.685 100.147 581.245 98.46C580.805 96.7733 580.109 95.1233 579.155 93.51L589.715 89.33C591.842 91.6767 593.015 94.5733 593.235 98.02C598.002 92.3 603.979 89.44 611.165 89.44C615.859 89.44 620.002 90.5767 623.595 92.85C627.189 95.05 629.975 98.24 631.955 102.42C633.935 106.6 634.925 111.513 634.925 117.16C634.925 125.813 632.689 132.633 628.215 137.62C623.815 142.533 617.839 144.99 610.285 144.99C607.059 144.99 604.089 144.367 601.375 143.12C598.735 141.8 596.499 140.04 594.665 137.84V168.09H581.905V105.17ZM608.305 134.65C612.925 134.65 616.372 133.147 618.645 130.14C620.992 127.133 622.165 122.807 622.165 117.16C622.165 111.733 620.992 107.48 618.645 104.4C616.372 101.247 613.072 99.67 608.745 99.67C604.199 99.67 600.679 101.173 598.185 104.18C595.692 107.187 594.445 111.037 594.445 115.73V118.59C594.445 122.99 595.655 126.767 598.075 129.92C600.495 133.073 603.905 134.65 608.305 134.65Z" fill="#E4DDEE"/>
</svg>
