<svg width="151" height="150" viewBox="0 0 151 150" fill="none" xmlns="http://www.w3.org/2000/svg">
<circle cx="12.1758" cy="53.4427" r="11.2159" fill="#E4DDEE"/>
<circle cx="54.3479" cy="11.2709" r="11.2159" fill="#E4DDEE"/>
<circle cx="54.3478" cy="53.4427" r="11.2159" fill="#E4DDEE"/>
<rect x="12.1758" y="57.9292" width="8.97275" height="42.1719" transform="rotate(-90 12.1758 57.9292)" fill="#E4DDEE"/>
<rect x="49.8615" y="11.2708" width="8.97275" height="42.1719" fill="#E4DDEE"/>
<path d="M76.0882 63.9492C82.2826 63.9492 87.3042 68.9708 87.3042 75.1652C87.3042 81.3596 82.2826 86.3811 76.0882 86.3811C69.8939 86.3811 64.8723 81.3596 64.8723 75.1652C64.8723 68.9708 69.8939 63.9492 76.0882 63.9492Z" fill="#E4DDEE"/>
<circle cx="76.0881" cy="117.337" r="11.2159" transform="rotate(-90 76.0881 117.337)" fill="#E4DDEE"/>
<rect x="80.5747" y="117.337" width="8.97275" height="42.1719" transform="rotate(180 80.5747 117.337)" fill="#E4DDEE"/>
<circle cx="33.9161" cy="75.1652" r="11.2159" transform="rotate(180 33.9161 75.1652)" fill="#E4DDEE"/>
<rect x="76.0881" y="70.6787" width="8.97275" height="42.1719" transform="rotate(90 76.0881 70.6787)" fill="#E4DDEE"/>
<circle cx="76.0881" cy="33.8908" r="11.2159" transform="rotate(-90 76.0881 33.8908)" fill="#E4DDEE"/>
<rect x="80.5745" y="76.0625" width="8.97275" height="42.1719" transform="rotate(180 80.5745 76.0625)" fill="#E4DDEE"/>
<circle cx="118.26" cy="75.1652" r="11.2159" fill="#E4DDEE"/>
<rect x="76.0883" y="79.6516" width="8.97275" height="42.1719" transform="rotate(-90 76.0883 79.6516)" fill="#E4DDEE"/>
<circle cx="54.9822" cy="138.462" r="11.2159" transform="rotate(-90 54.9822 138.462)" fill="#E4DDEE"/>
<circle cx="12.8103" cy="96.2899" r="11.2159" transform="rotate(-90 12.8103 96.2899)" fill="#E4DDEE"/>
<circle cx="54.9823" cy="96.2899" r="11.2159" transform="rotate(-90 54.9823 96.2899)" fill="#E4DDEE"/>
<rect x="59.4688" y="138.462" width="8.97275" height="42.1719" transform="rotate(180 59.4688 138.462)" fill="#E4DDEE"/>
<rect x="12.8103" y="100.776" width="8.97275" height="42.1719" transform="rotate(-90 12.8103 100.776)" fill="#E4DDEE"/>
<circle cx="97.3849" cy="11.715" r="11.2159" transform="rotate(90 97.3849 11.715)" fill="#E4DDEE"/>
<circle cx="139.557" cy="53.8868" r="11.2159" transform="rotate(90 139.557 53.8868)" fill="#E4DDEE"/>
<circle cx="97.385" cy="53.8868" r="11.2159" transform="rotate(90 97.385 53.8868)" fill="#E4DDEE"/>
<rect x="92.8987" y="11.7148" width="8.97275" height="42.1719" fill="#E4DDEE"/>
<rect x="139.557" y="49.4004" width="8.97275" height="42.1719" transform="rotate(90 139.557 49.4004)" fill="#E4DDEE"/>
<circle cx="139.367" cy="96.2897" r="11.2159" transform="rotate(180 139.367 96.2897)" fill="#E4DDEE"/>
<circle cx="97.1946" cy="138.462" r="11.2159" transform="rotate(180 97.1946 138.462)" fill="#E4DDEE"/>
<circle cx="97.1947" cy="96.2897" r="11.2159" transform="rotate(180 97.1947 96.2897)" fill="#E4DDEE"/>
<rect x="139.367" y="91.8032" width="8.97275" height="42.1719" transform="rotate(90 139.367 91.8032)" fill="#E4DDEE"/>
<rect x="101.681" y="138.461" width="8.97275" height="42.1719" transform="rotate(180 101.681 138.461)" fill="#E4DDEE"/>
</svg>
