<svg width="1042" height="485" viewBox="0 0 1042 485" fill="none" xmlns="http://www.w3.org/2000/svg">
<rect width="1042" height="485" fill="#0D0812"/>
<circle cx="215.682" cy="272.754" r="11.2159" transform="rotate(-45 215.682 272.754)" fill="#E4DDEE"/>
<circle cx="215.682" cy="213.113" r="11.2159" transform="rotate(-45 215.682 213.113)" fill="#E4DDEE"/>
<circle cx="245.502" cy="242.934" r="11.2159" transform="rotate(-45 245.502 242.934)" fill="#E4DDEE"/>
<rect x="218.854" y="275.926" width="8.97275" height="42.1719" transform="rotate(-135 218.854 275.926)" fill="#E4DDEE"/>
<rect x="212.509" y="216.286" width="8.97275" height="42.1719" transform="rotate(-45 212.509 216.286)" fill="#E4DDEE"/>
<path d="M268.304 234.99C272.684 230.61 279.785 230.61 284.166 234.99C288.546 239.37 288.546 246.471 284.166 250.851C279.785 255.231 272.684 255.231 268.304 250.851C263.924 246.471 263.924 239.37 268.304 234.99Z" fill="#E4DDEE"/>
<circle cx="306.055" cy="272.741" r="11.2159" transform="rotate(-135 306.055 272.741)" fill="#E4DDEE"/>
<rect x="309.227" y="269.568" width="8.97275" height="42.1719" transform="rotate(135 309.227 269.568)" fill="#E4DDEE"/>
<circle cx="246.415" cy="272.741" r="11.2159" transform="rotate(135 246.415 272.741)" fill="#E4DDEE"/>
<rect x="273.062" y="239.749" width="8.97275" height="42.1719" transform="rotate(45 273.062 239.749)" fill="#E4DDEE"/>
<circle cx="247.049" cy="213.735" r="11.2159" transform="rotate(-135 247.049 213.735)" fill="#E4DDEE"/>
<rect x="280.042" y="240.383" width="8.97275" height="42.1719" transform="rotate(135 280.042 240.383)" fill="#E4DDEE"/>
<circle cx="306.055" cy="213.101" r="11.2159" transform="rotate(-45 306.055 213.101)" fill="#E4DDEE"/>
<rect x="279.407" y="246.093" width="8.97275" height="42.1719" transform="rotate(-135 279.407 246.093)" fill="#E4DDEE"/>
<circle cx="306.068" cy="302.603" r="11.2159" transform="rotate(-135 306.068 302.603)" fill="#E4DDEE"/>
<circle cx="246.428" cy="302.603" r="11.2159" transform="rotate(-135 246.428 302.603)" fill="#E4DDEE"/>
<circle cx="276.248" cy="272.782" r="11.2159" transform="rotate(-135 276.248 272.782)" fill="#E4DDEE"/>
<rect x="309.24" y="299.43" width="8.97275" height="42.1719" transform="rotate(135 309.24 299.43)" fill="#E4DDEE"/>
<rect x="249.6" y="305.775" width="8.97275" height="42.1719" transform="rotate(-135 249.6 305.775)" fill="#E4DDEE"/>
<circle cx="246.428" cy="182.996" r="11.2159" transform="rotate(45 246.428 182.996)" fill="#E4DDEE"/>
<circle cx="306.068" cy="182.996" r="11.2159" transform="rotate(45 306.068 182.996)" fill="#E4DDEE"/>
<circle cx="276.248" cy="212.816" r="11.2159" transform="rotate(45 276.248 212.816)" fill="#E4DDEE"/>
<rect x="243.255" y="186.168" width="8.97275" height="42.1719" transform="rotate(-45 243.255 186.168)" fill="#E4DDEE"/>
<rect x="302.895" y="179.823" width="8.97275" height="42.1719" transform="rotate(45 302.895 179.823)" fill="#E4DDEE"/>
<circle cx="335.917" cy="213.113" r="11.2159" transform="rotate(135 335.917 213.113)" fill="#E4DDEE"/>
<circle cx="335.917" cy="272.754" r="11.2159" transform="rotate(135 335.917 272.754)" fill="#E4DDEE"/>
<circle cx="306.097" cy="242.934" r="11.2159" transform="rotate(135 306.097 242.934)" fill="#E4DDEE"/>
<rect x="332.744" y="209.941" width="8.97275" height="42.1719" transform="rotate(45 332.744 209.941)" fill="#E4DDEE"/>
<rect x="339.089" y="269.581" width="8.97275" height="42.1719" transform="rotate(135 339.089 269.581)" fill="#E4DDEE"/>
<path d="M415.54 282.1C409.307 282.1 403.55 281 398.27 278.8C393.063 276.527 388.7 273.41 385.18 269.45L392.99 261.64C396.217 265.16 399.663 267.69 403.33 269.23C406.997 270.697 411.14 271.43 415.76 271.43C420.087 271.43 423.387 270.623 425.66 269.01C428.007 267.323 429.18 265.013 429.18 262.08C429.18 259.953 428.703 258.193 427.75 256.8C426.87 255.407 425.183 254.013 422.69 252.62C420.197 251.227 416.42 249.613 411.36 247.78C402.853 244.7 396.693 241.29 392.88 237.55C389.14 233.737 387.27 229.007 387.27 223.36C387.27 216.907 389.69 211.883 394.53 208.29C399.37 204.697 405.823 202.9 413.89 202.9C418.877 202.9 423.643 203.743 428.19 205.43C432.81 207.043 436.807 209.28 440.18 212.14L433.36 220.83C430.207 218.19 427.2 216.32 424.34 215.22C421.48 214.12 417.997 213.57 413.89 213.57C409.563 213.57 406.227 214.377 403.88 215.99C401.607 217.603 400.47 220.023 400.47 223.25C400.47 225.377 401.02 227.21 402.12 228.75C403.22 230.217 405.017 231.61 407.51 232.93C410.003 234.25 413.633 235.827 418.4 237.66C424.487 240.007 429.217 242.28 432.59 244.48C436.037 246.607 438.53 249.063 440.07 251.85C441.61 254.563 442.38 257.973 442.38 262.08C442.38 268.387 439.997 273.3 435.23 276.82C430.463 280.34 423.9 282.1 415.54 282.1ZM473.037 282.21C467.537 282.21 462.771 281.037 458.737 278.69C454.704 276.343 451.624 273.08 449.497 268.9C447.371 264.647 446.307 259.807 446.307 254.38C446.307 248.953 447.371 244.15 449.497 239.97C451.624 235.717 454.704 232.417 458.737 230.07C462.771 227.723 467.537 226.55 473.037 226.55C478.537 226.55 483.267 227.723 487.227 230.07C491.261 232.417 494.341 235.717 496.467 239.97C498.594 244.15 499.657 248.953 499.657 254.38C499.657 259.807 498.594 264.647 496.467 268.9C494.341 273.08 491.261 276.343 487.227 278.69C483.267 281.037 478.537 282.21 473.037 282.21ZM473.037 271.76C477.511 271.76 480.884 270.22 483.157 267.14C485.504 263.987 486.677 259.733 486.677 254.38C486.677 248.953 485.504 244.7 483.157 241.62C480.884 238.54 477.511 237 473.037 237C468.564 237 465.154 238.54 462.807 241.62C460.461 244.7 459.287 248.953 459.287 254.38C459.287 259.733 460.461 263.987 462.807 267.14C465.154 270.22 468.564 271.76 473.037 271.76ZM505.987 242.06C505.987 239.713 505.804 237.733 505.437 236.12C505.144 234.433 504.521 232.71 503.567 230.95L514.897 226.55C515.557 227.65 516.144 229.043 516.657 230.73C517.244 232.343 517.574 233.847 517.647 235.24C519.554 232.307 521.607 230.143 523.807 228.75C526.081 227.283 528.684 226.55 531.617 226.55C533.671 226.55 535.467 226.807 537.007 227.32C538.547 227.833 540.234 228.75 542.067 230.07L537.227 238.98C535.101 237.66 532.901 237 530.627 237C526.667 237 523.697 238.32 521.717 240.96C519.737 243.6 518.747 247.34 518.747 252.18V281H505.987V242.06ZM565.966 282.21C560.466 282.21 555.699 281.037 551.666 278.69C547.633 276.343 544.553 273.08 542.426 268.9C540.299 264.647 539.236 259.807 539.236 254.38C539.236 248.953 540.299 244.15 542.426 239.97C544.553 235.717 547.633 232.417 551.666 230.07C555.699 227.723 560.466 226.55 565.966 226.55C571.466 226.55 576.196 227.723 580.156 230.07C584.189 232.417 587.269 235.717 589.396 239.97C591.523 244.15 592.586 248.953 592.586 254.38C592.586 259.807 591.523 264.647 589.396 268.9C587.269 273.08 584.189 276.343 580.156 278.69C576.196 281.037 571.466 282.21 565.966 282.21ZM565.966 271.76C570.439 271.76 573.813 270.22 576.086 267.14C578.433 263.987 579.606 259.733 579.606 254.38C579.606 248.953 578.433 244.7 576.086 241.62C573.813 238.54 570.439 237 565.966 237C561.493 237 558.083 238.54 555.736 241.62C553.389 244.7 552.216 248.953 552.216 254.38C552.216 259.733 553.389 263.987 555.736 267.14C558.083 270.22 561.493 271.76 565.966 271.76ZM641.816 282.21C639.689 279.863 638.516 276.93 638.296 273.41C633.896 279.203 628.103 282.1 620.916 282.1C616.149 282.1 611.896 281.037 608.156 278.91C604.489 276.71 601.629 273.593 599.576 269.56C597.523 265.453 596.496 260.65 596.496 255.15C596.496 249.357 597.523 244.297 599.576 239.97C601.629 235.643 604.526 232.343 608.266 230.07C612.079 227.723 616.516 226.55 621.576 226.55C627.663 226.55 632.759 228.933 636.866 233.7V200.26H649.626V266.37C649.626 269.083 649.809 271.32 650.176 273.08C650.616 274.84 651.313 276.49 652.266 278.03L641.816 282.21ZM622.786 271.87C627.333 271.87 630.816 270.367 633.236 267.36C635.729 264.353 636.976 260.503 636.976 255.81V252.95C636.976 248.477 635.766 244.663 633.346 241.51C630.999 238.357 627.626 236.78 623.226 236.78C618.606 236.78 615.123 238.43 612.776 241.73C610.503 244.957 609.366 249.43 609.366 255.15C609.366 260.43 610.466 264.537 612.666 267.47C614.939 270.403 618.313 271.87 622.786 271.87ZM658.647 242.06C658.647 239.713 658.464 237.733 658.097 236.12C657.804 234.433 657.18 232.71 656.227 230.95L667.557 226.55C668.217 227.65 668.804 229.043 669.317 230.73C669.904 232.343 670.234 233.847 670.307 235.24C672.214 232.307 674.267 230.143 676.467 228.75C678.74 227.283 681.344 226.55 684.277 226.55C686.33 226.55 688.127 226.807 689.667 227.32C691.207 227.833 692.894 228.75 694.727 230.07L689.887 238.98C687.76 237.66 685.56 237 683.287 237C679.327 237 676.357 238.32 674.377 240.96C672.397 243.6 671.407 247.34 671.407 252.18V281H658.647V242.06ZM718.625 282.21C713.125 282.21 708.359 281.037 704.325 278.69C700.292 276.343 697.212 273.08 695.085 268.9C692.959 264.647 691.895 259.807 691.895 254.38C691.895 248.953 692.959 244.15 695.085 239.97C697.212 235.717 700.292 232.417 704.325 230.07C708.359 227.723 713.125 226.55 718.625 226.55C724.125 226.55 728.855 227.723 732.815 230.07C736.849 232.417 739.929 235.717 742.055 239.97C744.182 244.15 745.245 248.953 745.245 254.38C745.245 259.807 744.182 264.647 742.055 268.9C739.929 273.08 736.849 276.343 732.815 278.69C728.855 281.037 724.125 282.21 718.625 282.21ZM718.625 271.76C723.099 271.76 726.472 270.22 728.745 267.14C731.092 263.987 732.265 259.733 732.265 254.38C732.265 248.953 731.092 244.7 728.745 241.62C726.472 238.54 723.099 237 718.625 237C714.152 237 710.742 238.54 708.395 241.62C706.049 244.7 704.875 248.953 704.875 254.38C704.875 259.733 706.049 263.987 708.395 267.14C710.742 270.22 714.152 271.76 718.625 271.76ZM751.905 242.17C751.905 239.383 751.685 237.147 751.245 235.46C750.805 233.773 750.109 232.123 749.155 230.51L759.715 226.33C761.842 228.677 763.015 231.573 763.235 235.02C768.002 229.3 773.979 226.44 781.165 226.44C785.859 226.44 790.002 227.577 793.595 229.85C797.189 232.05 799.975 235.24 801.955 239.42C803.935 243.6 804.925 248.513 804.925 254.16C804.925 262.813 802.689 269.633 798.215 274.62C793.815 279.533 787.839 281.99 780.285 281.99C777.059 281.99 774.089 281.367 771.375 280.12C768.735 278.8 766.499 277.04 764.665 274.84V305.09H751.905V242.17ZM778.305 271.65C782.925 271.65 786.372 270.147 788.645 267.14C790.992 264.133 792.165 259.807 792.165 254.16C792.165 248.733 790.992 244.48 788.645 241.4C786.372 238.247 783.072 236.67 778.745 236.67C774.199 236.67 770.679 238.173 768.185 241.18C765.692 244.187 764.445 248.037 764.445 252.73V255.59C764.445 259.99 765.655 263.767 768.075 266.92C770.495 270.073 773.905 271.65 778.305 271.65Z" fill="#E4DDEE"/>
</svg>
